<svg version="1.1" xmlns="http://www.w3.org/2000/svg" xmlns:xlink="http://www.w3.org/1999/xlink" width="800px" height="800px" viewBox="0,0,256,256"><g fill="none" fill-rule="nonzero" stroke="#ffffff" stroke-width="1.5" stroke-linecap="none" stroke-linejoin="miter" stroke-miterlimit="10" stroke-dasharray="" stroke-dashoffset="0" font-family="none" font-weight="none" font-size="none" text-anchor="none" style="mix-blend-mode: normal"><g transform="translate(-0.00205,0) scale(10.66667,10.66667)"><path d="M3.864,16.4552c0.54567,2.1827 0.81851,3.274 1.63229,3.9094c0.81379,0.6354 1.93871,0.6354 4.18857,0.6354h4.63064c2.2499,0 3.3748,0 4.1886,-0.6354c0.8138,-0.6354 1.0866,-1.7267 1.6323,-3.9094c0.8579,-3.4318 1.2869,-5.1477 0.3861,-6.3014c-0.9008,-1.1538 -2.6695,-1.1538 -6.207,-1.1538h-4.63064c-3.53741,0 -5.30611,0 -6.20695,1.1538c-0.52879,0.6772 -0.59936,1.5482 -0.39393,2.8462" stroke-linecap="round"></path><path d="M19.5,9.5l-0.7104,-2.60535c-0.2739,-1.0046 -0.4109,-1.5069 -0.6918,-1.88519c-0.2798,-0.37673 -0.66,-0.66712 -1.097,-0.83794c-0.4389,-0.17152 -0.9595,-0.17152 -2.0008,-0.17152M4.5,9.5l0.7104,-2.60535c0.27392,-1.0046 0.41088,-1.5069 0.69181,-1.88519c0.27978,-0.37673 0.65995,-0.66712 1.09701,-0.83794c0.43886,-0.17152 0.9595,-0.17152 2.00078,-0.17152" stroke-linecap="butt"></path><path d="M9,4c0,-0.55228 0.44772,-1 1,-1h4c0.5523,0 1,0.44772 1,1c0,0.55228 -0.4477,1 -1,1h-4c-0.55228,0 -1,-0.44772 -1,-1z" stroke-linecap="butt"></path></g></g></svg>